<svg xmlns="http://www.w3.org/2000/svg" width="1000" height="218" viewBox="0 0 1000 218"><defs><style>.cls-1{fill:#fff;}</style></defs><title>Asset 2</title><g id="Layer_2" data-name="Layer 2"><g id="Layer_1-2" data-name="Layer 1"><g id="qeBmeg.tif"><path class="cls-1" d="M127,0V217.45c-9.57-1.67-18.69-3.25-27.8-4.86L0,195V22a37.67,37.67,0,0,0,4.44-.27C36.28,16.07,68.13,10.5,99.92,4.62,107,3.31,114.36,3.29,121,0ZM80.71,94.27H56.46V72.85H85.73V55.08L37.29,58.41v90.7l47.4,5.34V135.39L56.45,133V112.47H80.71Z"/><path class="cls-1" d="M838,218c-5.12-3-11.47-2.91-16.7-6.6V196.75c7.24,3.27,14.12,6.53,21.69,7.71a48.66,48.66,0,0,0,21.73-1.06c9.07-2.71,15.26-8.52,18.31-17.54,2.8-8.28,2.86-16.8,2.65-25.29-1.31-.22-1.57.46-1.93,1-9.82,13.77-23.66,17.44-39.25,14.17-15.84-3.32-24.65-14.61-28.13-29.82a69.29,69.29,0,0,1,2.45-40.29c7.47-20,27.33-30.6,48.11-25.7,7.69,1.81,13.34,6.43,18.56,13.63V81.48H900.2c.87.66.73,1.71.73,2.68,0,28.64,0,57.28-.14,85.93a63.17,63.17,0,0,1-3.17,19.64c-5.16,15.59-16.26,24.21-32.07,27.26-.91.18-2.06-.24-2.55,1Zm47.73-91.52c0-4.15.16-8.31-.57-12.44-1.88-10.68-8-18-18.26-21-10.47-3.05-20.67-1.37-27.62,7.59-11.15,14.38-12.2,30.84-5.33,47.14,8.19,19.45,33.57,21.62,45.82,4.45C885.27,144.55,886,135.6,885.73,126.48Z"/><path class="cls-1" d="M1000,132q-31.95-.11-63.9-.19a3.89,3.89,0,0,0-1.32.52c-.84,20.13,13.75,33.52,33.57,31.22a51.12,51.12,0,0,0,24.85-9.85v14.11c-9.85,7.39-21.59,9.35-33.73,8.81-23.55-1-38.55-16-40.5-39.73-1.29-15.7.62-30.68,11.15-43.28,11.47-13.72,26.46-17.56,43.23-13.28,15.67,4,23.12,15.77,25.74,31.07.11.67.19,1.3.91,1.6Zm-16.1-13.5c1.57-14-7.31-25.82-19.72-26.49-15.45-.84-29,11.52-28.88,26.49Z"/><path class="cls-1" d="M151.58,80l5.5-7.72-12.75-11.9-5.87-.5V44.59c1.56-1.21,3.11-.76,4.55-.77q35.73,0,71.47,0c9,0,12.35,3.34,12.35,12.37q0,53.23,0,106.45c0,7.92-3.44,12.07-10.71,12.11-25.64.15-51.29.06-77.4.06V159c5.8,0,9-4.29,12.25-8.54,6.83-8.82,13.77-17.56,18.81-27.59,1.3-2.58,1.29-2.59-.53-5.15-10.23,8.87-18.4,20-29.31,28.09l-1.27-.94V113.37c5.09.66,8.23,6.83,14.57,4.86L138.51,104V74h6.57Zm26,64.93-6.6-6c-2,2.58-4.07,4.71-5.16,8,4.57,3.75,7.72,10.22,13.55,11.18,9.44,1.55,19.22,1,28.84.09.57-.06,1.09-.67,2.1-1.33,0-9.28,0-18.75,0-28.21,0-2-1.4-3.41-2.75-4.59a179.58,179.58,0,0,0-33.8-23.8c-1.81-1-3.47-1.39-4,1.14l26.88,27.41v16.1Zm-25.07-44.2,26.74-26.61h18c-1.67,8.93,3.64,18.8-6.65,25.36,2.74,2.34,5,4.22,7.64,5.32,2.42-2.35,4.74-4.48,6.91-6.74,1.93-2,4.89-3.7,5-6.63.28-9.93.11-19.88.11-29.07-1.57-1.82-2.76-2.23-4.17-2.23-8.16,0-16.31,0-24.47,0-2.34,0-4,1.27-5.54,2.93a180,180,0,0,0-23.66,33.24C151.58,97.79,150.31,99.57,152.49,100.7Z"/><path class="cls-1" d="M298.6,57.82v43h46.47c.89,4.89.45,9.41.33,14.28H298.7v45h53.14v14H283.11v-130h65.76V57.82Z"/><path class="cls-1" d="M547.06,174.1h-14.8V36.73h14.61V96.15c1.88-2.32,3-3.68,4.07-5,10.47-12.79,31.54-16.5,44.87-7.86,8.57,5.55,12.58,14.21,12.87,23.68.67,22.25.21,44.54.21,67.12H594.7c-1-1.45-.59-3-.6-4.43q-.08-25.48-.06-51a41.73,41.73,0,0,0-1-9.9c-4.11-17-22.61-22.82-35.82-11.27-6.81,6-10,13.64-10.09,22.52-.15,16,0,32,0,48C547.06,169.94,547.06,171.9,547.06,174.1Z"/><path class="cls-1" d="M634.09,87c13.78-6.63,27.88-10.34,43.06-6.91,12.24,2.76,20.54,13.16,20.88,27.1.46,18.8.24,37.62.31,56.43,0,3.45,0,6.9,0,10.51H683.2V160.5c-1.75,2.27-2.7,3.54-3.68,4.77-10.31,12.93-32.47,15.24-45.6,5.29-13.44-10.19-13.61-39.68,7.81-47.93,9.16-3.53,18.8-4,28.27-5.64,4.23-.72,8.49-1.24,12.64-1.83,1.88-17-8.8-26.14-26.22-22.72a52.56,52.56,0,0,0-11.84,3.79,54.57,54.57,0,0,0-10.5,6.84Zm48.79,40.48c-11.1,1.7-22,2.1-32.3,5.52-7.36,2.43-10.73,7.66-10.48,15.62a14.74,14.74,0,0,0,11.81,14.23c10.15,2.33,18.74-.4,25.42-8.54C683.68,146.63,683.58,137.54,682.88,127.52Z"/><path class="cls-1" d="M721.48,81.17h14.33c1.69,4.3,0,8.88,1.11,13.42,1.83-.36,2.31-2.09,3.24-3.26,12-14.94,35.87-17.17,48.92-4.42,6.55,6.4,8.62,14.79,9.57,23.53a56,56,0,0,1,.31,6c0,19.13,0,38.27,0,57.73H784.38c-1.05-1.84-.55-3.71-.59-5.49-.4-18.47,1-37-.73-55.42C781.67,98.8,774.42,91.93,762.18,92a25.29,25.29,0,0,0-25,23.17c-1.49,17.44-.29,35-.6,52.44,0,2.12.47,4.32-.69,6.59H721.48Z"/><path class="cls-1" d="M359.5,81.16h17.68L399.32,120l23.21-38.84h16.72L408.06,128.3l30.6,45.87H421l-22.35-36.85-22.85,36.93H358.28l31.57-45.61Z"/><path class="cls-1" d="M514.55,83V98.79c-6.07-3.29-11.82-6.22-18.37-6.74-19.6-1.57-34.71,11.67-36,31.7a58.3,58.3,0,0,0,.39,12.95c4,25.44,28.54,32.74,48,22.65,1.76-.91,3.42-2,5.64-3.3v13.88c-26.34,18.63-64.92,1.31-69.08-31.26-2.62-20.51,1.5-39.23,19.64-51.73C480.21,76.27,497.14,76.85,514.55,83Z"/></g></g></g></svg>